<svg xmlns="http://www.w3.org/2000/svg" viewBox="0 0 24 12">
  <rect fill="#00247D" width="24" height="12"/>
  <g fill="#CC142B">
    <path d="M19.5 2.5l.4 1.2h1.3l-1 .8.4 1.2-1-.8-1.1.8.4-1.2-1-.8h1.2z"/>
    <path d="M21 7l.3.8h.8l-.7.5.3.8-.7-.5-.7.5.3-.8-.7-.5h.8z"/>
    <path d="M18.5 8.5l.3.8h.8l-.7.5.3.8-.7-.5-.7.5.3-.8-.7-.5h.8z"/>
    <path d="M17 5.5l.3.8h.8l-.7.5.3.8-.7-.5-.7.5.3-.8-.7-.5h.8z"/>
  </g>
  <g fill="#FFF">
    <path d="M19.5 2.5l.3.9h1l-.8.6.3.9-.8-.6-.8.6.3-.9-.8-.6h1z"/>
    <path d="M21 7l.2.6h.6l-.5.4.2.6-.5-.4-.5.4.2-.6-.5-.4h.6z"/>
    <path d="M18.5 8.5l.2.6h.6l-.5.4.2.6-.5-.4-.5.4.2-.6-.5-.4h.6z"/>
    <path d="M17 5.5l.2.6h.6l-.5.4.2.6-.5-.4-.5.4.2-.6-.5-.4h.6z"/>
  </g>
  <path fill="#FFF" d="M0 0v.5L5 3H6V2.5L1 0H0M6 0v.5L1 3H0V2.5L5 0h1"/>
  <path fill="#CC142B" d="M2.5 0v3H0V0h2.5M6 1v1H0V1h6"/>
  <path fill="#FFF" d="M0 1.2v.6h6v-.6H0M2.2 0v3h.6V0h-.6"/>
  <path fill="#CC142B" d="M0 1.4v.2h6v-.2H0M2.4 0v3h.2V0h-.2"/>
</svg>
